# xmcd CD database file
#
# Track frame offsets:
#	150
#	28801
#	55962
#	91513
#	99914
#	120962
#	161669
#	185520
#	202621
#	213216
#	240967
#
# Disc length: 3538 seconds
#
# Revision: 0
# Processed by: cddbd v1.5.2PL0 Copyright (c) Steve Scherf et al.
# Submitted via: CDex 1.51
#
DISCID=790dd00b
DTITLE=Catania Quintet - Libertango
DYEAR=1900
DGENRE=Jazz
TTITLE0=Seven years
TTITLE1=Kontinuum
TTITLE2=Lino
TTITLE3=Sippin' Samba
TTITLE4=Oblivion
TTITLE5=Drachenburg
TTITLE6=Night Club 1960
TTITLE7=Manuel
TTITLE8=Sarau Para Radames
TTITLE9=Loro
TTITLE10=Libertango
EXTD=
EXTT0=
EXTT1=
EXTT2=
EXTT3=
EXTT4=
EXTT5=
EXTT6=
EXTT7=
EXTT8=
EXTT9=
EXTT10=
PLAYORDER=
